<svg xmlns="http://www.w3.org/2000/svg" width="64" height="64" viewBox="0 0 64 64">
  <defs>
    <linearGradient id="bg" x1="14%" x2="86%" y1="12%" y2="88%">
      <stop offset="0%" stop-color="#4f46e5"/>
      <stop offset="100%" stop-color="#7c3aed"/>
    </linearGradient>
    <linearGradient id="glow" x1="18%" x2="82%" y1="20%" y2="80%">
      <stop offset="0%" stop-color="#c4b5fd" stop-opacity="0.8"/>
      <stop offset="100%" stop-color="#ede9fe" stop-opacity="0.4"/>
    </linearGradient>
  </defs>
  <rect width="64" height="64" rx="16" ry="16" fill="url(#bg)"/>
  <circle cx="32" cy="32" r="18" fill="url(#glow)"/>
  <path
    d="M24 21c1.8-4 5.5-6.5 8.5-6.5 6 0 11 4.9 11 11v7.3c0 5.1-4.2 9.3-9.3 9.3H32v7.9h-4.6V42H25c-4.1 0-7.4-3.3-7.4-7.4v-3.6h4.6v3.6c0 1.6 1.3 2.9 2.9 2.9h3.8V29H26c-3.1 0-4.6-2.2-4.6-4.7 0-1 .2-2 .6-3.3Z"
    fill="#fff"
    fill-opacity="0.95"
  />
  <path
    d="M38 21.5c2.5 1.4 4.1 4 4.1 6.8v2.1"
    fill="none"
    stroke="#ede9fe"
    stroke-width="2.6"
    stroke-linecap="round"
  />
  <path
    d="M24.5 26.5c0-3.2 2.3-5.7 5.7-5.7"
    fill="none"
    stroke="#ede9fe"
    stroke-width="2.6"
    stroke-linecap="round"
  />
</svg>
