<svg xmlns="http://www.w3.org/2000/svg" viewBox="0 0 512 512">
  <defs>
    <linearGradient id="maskGradient" x1="0%" x2="100%" y1="0%" y2="100%">
      <stop offset="0%" stop-color="#4f46e5"/>
      <stop offset="100%" stop-color="#7c3aed"/>
    </linearGradient>
  </defs>
  <rect width="512" height="512" rx="128" ry="128" fill="url(#maskGradient)"/>
  <path
    d="M188 164c14.5-37 45.8-60 79.9-60C335 104 368 142.6 368 204v64c0 52.2-41.8 94-94 94h-9v72h-50v-72h-15c-46 0-82-36-82-82v-40h50v34c0 18.5 15.5 34 34 34h31V232h-28c-28 0-44-19.5-44-44.2 0-6.4 1.1-15.3 7-23.8Z"
    fill="#ffffff"
  />
  <path
    d="M322 180c16 9.2 26 26 26 44v24"
    fill="none"
    stroke="#dcd6ff"
    stroke-width="20"
    stroke-linecap="round"
  />
  <path
    d="M196 216c0-24 18-44 44-44"
    fill="none"
    stroke="#dcd6ff"
    stroke-width="20"
    stroke-linecap="round"
  />
</svg>
